<svg width="74" height="74" viewBox="0 0 74 74" fill="none" xmlns="http://www.w3.org/2000/svg">
<circle cx="37" cy="37" r="32" fill="#8C6630" stroke="#9A822F" stroke-width="10"/>
<path d="M39.4297 13.4609V20.375H35.7734V13.4609H39.4297ZM38.9844 51.7344V58.0391H35.3281V51.7344H38.9844ZM41.5625 44.0469C41.5625 43.1562 41.3984 42.3984 41.0703 41.7734C40.7578 41.1484 40.2422 40.5938 39.5234 40.1094C38.8203 39.625 37.8672 39.1562 36.6641 38.7031C34.6328 37.9219 32.8438 37.0938 31.2969 36.2188C29.7656 35.3281 28.5703 34.2266 27.7109 32.9141C26.8516 31.5859 26.4219 29.9062 26.4219 27.875C26.4219 25.9375 26.8828 24.2578 27.8047 22.8359C28.7266 21.4141 30 20.3203 31.625 19.5547C33.2656 18.7734 35.1719 18.3828 37.3438 18.3828C39 18.3828 40.5 18.6328 41.8438 19.1328C43.1875 19.6172 44.3438 20.3359 45.3125 21.2891C46.2812 22.2266 47.0234 23.375 47.5391 24.7344C48.0547 26.0938 48.3125 27.6484 48.3125 29.3984H41.5859C41.5859 28.4609 41.4844 27.6328 41.2812 26.9141C41.0781 26.1953 40.7812 25.5938 40.3906 25.1094C40.0156 24.625 39.5625 24.2656 39.0312 24.0312C38.5 23.7812 37.9141 23.6562 37.2734 23.6562C36.3203 23.6562 35.5391 23.8438 34.9297 24.2188C34.3203 24.5938 33.875 25.1016 33.5938 25.7422C33.3281 26.3672 33.1953 27.0859 33.1953 27.8984C33.1953 28.6953 33.3359 29.3906 33.6172 29.9844C33.9141 30.5781 34.4219 31.125 35.1406 31.625C35.8594 32.1094 36.8438 32.6094 38.0938 33.125C40.125 33.9062 41.9062 34.75 43.4375 35.6562C44.9688 36.5625 46.1641 37.6719 47.0234 38.9844C47.8828 40.2969 48.3125 41.9688 48.3125 44C48.3125 46.0156 47.8438 47.7344 46.9062 49.1562C45.9688 50.5625 44.6562 51.6406 42.9688 52.3906C41.2812 53.125 39.3281 53.4922 37.1094 53.4922C35.6719 53.4922 34.2422 53.3047 32.8203 52.9297C31.3984 52.5391 30.1094 51.9141 28.9531 51.0547C27.7969 50.1953 26.875 49.0547 26.1875 47.6328C25.5 46.1953 25.1562 44.4297 25.1562 42.3359H31.9062C31.9062 43.4766 32.0547 44.4297 32.3516 45.1953C32.6484 45.9453 33.0391 46.5469 33.5234 47C34.0234 47.4375 34.5859 47.75 35.2109 47.9375C35.8359 48.125 36.4688 48.2188 37.1094 48.2188C38.1094 48.2188 38.9297 48.0391 39.5703 47.6797C40.2266 47.3203 40.7188 46.8281 41.0469 46.2031C41.3906 45.5625 41.5625 44.8438 41.5625 44.0469Z" fill="white"/>
</svg>
