<svg width="1920" height="159" viewBox="0 0 1920 159" fill="none" xmlns="http://www.w3.org/2000/svg">
<path fill-rule="evenodd" clip-rule="evenodd" d="M1829.49 76L1718 0L1606.51 76H0V159H1920V76H1829.49Z" fill="#3D8C53"/>
<circle cx="1718" cy="76" r="32" fill="#8C6630" stroke="#9A822F" stroke-width="10"/>
<path d="M1720.43 52.4609V59.375H1716.77V52.4609H1720.43ZM1719.98 90.7344V97.0391H1716.33V90.7344H1719.98ZM1722.56 83.0469C1722.56 82.1562 1722.4 81.3984 1722.07 80.7734C1721.76 80.1484 1721.24 79.5938 1720.52 79.1094C1719.82 78.625 1718.87 78.1562 1717.66 77.7031C1715.63 76.9219 1713.84 76.0938 1712.3 75.2188C1710.77 74.3281 1709.57 73.2266 1708.71 71.9141C1707.85 70.5859 1707.42 68.9062 1707.42 66.875C1707.42 64.9375 1707.88 63.2578 1708.8 61.8359C1709.73 60.4141 1711 59.3203 1712.62 58.5547C1714.27 57.7734 1716.17 57.3828 1718.34 57.3828C1720 57.3828 1721.5 57.6328 1722.84 58.1328C1724.19 58.6172 1725.34 59.3359 1726.31 60.2891C1727.28 61.2266 1728.02 62.375 1728.54 63.7344C1729.05 65.0938 1729.31 66.6484 1729.31 68.3984H1722.59C1722.59 67.4609 1722.48 66.6328 1722.28 65.9141C1722.08 65.1953 1721.78 64.5938 1721.39 64.1094C1721.02 63.625 1720.56 63.2656 1720.03 63.0312C1719.5 62.7812 1718.91 62.6562 1718.27 62.6562C1717.32 62.6562 1716.54 62.8438 1715.93 63.2188C1715.32 63.5938 1714.88 64.1016 1714.59 64.7422C1714.33 65.3672 1714.2 66.0859 1714.2 66.8984C1714.2 67.6953 1714.34 68.3906 1714.62 68.9844C1714.91 69.5781 1715.42 70.125 1716.14 70.625C1716.86 71.1094 1717.84 71.6094 1719.09 72.125C1721.12 72.9062 1722.91 73.75 1724.44 74.6562C1725.97 75.5625 1727.16 76.6719 1728.02 77.9844C1728.88 79.2969 1729.31 80.9688 1729.31 83C1729.31 85.0156 1728.84 86.7344 1727.91 88.1562C1726.97 89.5625 1725.66 90.6406 1723.97 91.3906C1722.28 92.125 1720.33 92.4922 1718.11 92.4922C1716.67 92.4922 1715.24 92.3047 1713.82 91.9297C1712.4 91.5391 1711.11 90.9141 1709.95 90.0547C1708.8 89.1953 1707.88 88.0547 1707.19 86.6328C1706.5 85.1953 1706.16 83.4297 1706.16 81.3359H1712.91C1712.91 82.4766 1713.05 83.4297 1713.35 84.1953C1713.65 84.9453 1714.04 85.5469 1714.52 86C1715.02 86.4375 1715.59 86.75 1716.21 86.9375C1716.84 87.125 1717.47 87.2188 1718.11 87.2188C1719.11 87.2188 1719.93 87.0391 1720.57 86.6797C1721.23 86.3203 1721.72 85.8281 1722.05 85.2031C1722.39 84.5625 1722.56 83.8438 1722.56 83.0469Z" fill="white"/>
<path d="M43.5547 118.336H44.7344C44.7344 119.154 44.5 119.768 44.0312 120.18C43.5677 120.586 42.9349 120.789 42.1328 120.789C41.5755 120.789 41.0938 120.661 40.6875 120.406C40.2812 120.151 39.9661 119.797 39.7422 119.344C39.5234 118.891 39.4141 118.365 39.4141 117.766V116.852C39.4141 116.253 39.5234 115.727 39.7422 115.273C39.9661 114.82 40.2812 114.466 40.6875 114.211C41.0938 113.956 41.5755 113.828 42.1328 113.828C42.9349 113.828 43.5703 114.031 44.0391 114.438C44.5078 114.844 44.7422 115.456 44.7422 116.273H43.5625C43.5625 115.768 43.4401 115.406 43.1953 115.188C42.9557 114.969 42.6016 114.859 42.1328 114.859C41.7943 114.859 41.5104 114.945 41.2812 115.117C41.0521 115.284 40.8776 115.516 40.7578 115.812C40.6432 116.109 40.5859 116.453 40.5859 116.844V117.766C40.5859 118.156 40.6432 118.503 40.7578 118.805C40.8776 119.102 41.0521 119.336 41.2812 119.508C41.5104 119.674 41.7943 119.758 42.1328 119.758C42.6016 119.758 42.9557 119.648 43.1953 119.43C43.4349 119.211 43.5547 118.846 43.5547 118.336ZM37.625 117.305C37.625 117.992 37.7422 118.635 37.9766 119.234C38.2161 119.828 38.5469 120.349 38.9688 120.797C39.3958 121.24 39.888 121.586 40.4453 121.836C41.0026 122.081 41.6016 122.203 42.2422 122.203C42.8776 122.203 43.474 122.081 44.0312 121.836C44.5885 121.586 45.0781 121.24 45.5 120.797C45.9219 120.349 46.2526 119.828 46.4922 119.234C46.7318 118.635 46.8516 117.992 46.8516 117.305C46.8516 116.612 46.7318 115.971 46.4922 115.383C46.2526 114.789 45.9219 114.271 45.5 113.828C45.0781 113.385 44.5885 113.042 44.0312 112.797C43.474 112.547 42.8776 112.422 42.2422 112.422C41.6016 112.422 41.0026 112.547 40.4453 112.797C39.888 113.042 39.3958 113.385 38.9688 113.828C38.5469 114.271 38.2161 114.789 37.9766 115.383C37.7422 115.971 37.625 116.612 37.625 117.305ZM36.6953 117.305C36.6953 116.477 36.8385 115.708 37.125 115C37.4115 114.292 37.8099 113.674 38.3203 113.148C38.8307 112.617 39.4193 112.206 40.0859 111.914C40.7578 111.617 41.4766 111.469 42.2422 111.469C43.0078 111.469 43.724 111.617 44.3906 111.914C45.0625 112.206 45.651 112.617 46.1562 113.148C46.6667 113.674 47.0651 114.292 47.3516 115C47.638 115.708 47.7812 116.477 47.7812 117.305C47.7812 118.133 47.638 118.901 47.3516 119.609C47.0651 120.318 46.6667 120.938 46.1562 121.469C45.651 122 45.0625 122.414 44.3906 122.711C43.724 123.008 43.0078 123.156 42.2422 123.156C41.4766 123.156 40.7578 123.008 40.0859 122.711C39.4193 122.414 38.8307 122 38.3203 121.469C37.8099 120.938 37.4115 120.318 37.125 119.609C36.8385 118.901 36.6953 118.133 36.6953 117.305ZM60.3047 119.258H62.4531C62.3958 120.018 62.1849 120.693 61.8203 121.281C61.4557 121.865 60.9479 122.323 60.2969 122.656C59.6458 122.99 58.8568 123.156 57.9297 123.156C57.2161 123.156 56.5729 123.031 56 122.781C55.4323 122.526 54.9453 122.164 54.5391 121.695C54.138 121.221 53.8307 120.654 53.6172 119.992C53.4036 119.326 53.2969 118.578 53.2969 117.75V116.883C53.2969 116.055 53.4062 115.307 53.625 114.641C53.8438 113.974 54.1562 113.406 54.5625 112.938C54.974 112.464 55.4661 112.099 56.0391 111.844C56.6172 111.589 57.263 111.461 57.9766 111.461C58.9036 111.461 59.6875 111.633 60.3281 111.977C60.9688 112.315 61.4661 112.781 61.8203 113.375C62.1745 113.969 62.388 114.651 62.4609 115.422H60.3125C60.2708 114.943 60.1667 114.536 60 114.203C59.8385 113.87 59.5938 113.617 59.2656 113.445C58.9427 113.268 58.513 113.18 57.9766 113.18C57.5599 113.18 57.1927 113.258 56.875 113.414C56.5625 113.57 56.3021 113.805 56.0938 114.117C55.8854 114.424 55.7292 114.81 55.625 115.273C55.5208 115.732 55.4688 116.263 55.4688 116.867V117.75C55.4688 118.328 55.5156 118.846 55.6094 119.305C55.7031 119.763 55.849 120.151 56.0469 120.469C56.2448 120.786 56.5 121.029 56.8125 121.195C57.125 121.362 57.4974 121.445 57.9297 121.445C58.4557 121.445 58.8828 121.362 59.2109 121.195C59.5443 121.029 59.7969 120.784 59.9688 120.461C60.1458 120.138 60.2578 119.737 60.3047 119.258ZM63.5938 118.859V118.695C63.5938 118.076 63.6823 117.505 63.8594 116.984C64.0365 116.458 64.2943 116.003 64.6328 115.617C64.9714 115.232 65.3854 114.932 65.875 114.719C66.3646 114.5 66.9219 114.391 67.5469 114.391C68.1823 114.391 68.7448 114.5 69.2344 114.719C69.7292 114.932 70.1458 115.232 70.4844 115.617C70.8229 116.003 71.0807 116.458 71.2578 116.984C71.4349 117.505 71.5234 118.076 71.5234 118.695V118.859C71.5234 119.474 71.4349 120.044 71.2578 120.57C71.0807 121.091 70.8229 121.547 70.4844 121.938C70.1458 122.323 69.7318 122.622 69.2422 122.836C68.7526 123.049 68.1927 123.156 67.5625 123.156C66.9375 123.156 66.3776 123.049 65.8828 122.836C65.388 122.622 64.9714 122.323 64.6328 121.938C64.2943 121.547 64.0365 121.091 63.8594 120.57C63.6823 120.044 63.5938 119.474 63.5938 118.859ZM65.6562 118.695V118.859C65.6562 119.229 65.6927 119.576 65.7656 119.898C65.8385 120.221 65.9505 120.505 66.1016 120.75C66.2526 120.995 66.4479 121.188 66.6875 121.328C66.9323 121.464 67.224 121.531 67.5625 121.531C67.8958 121.531 68.1823 121.464 68.4219 121.328C68.6615 121.188 68.8568 120.995 69.0078 120.75C69.1641 120.505 69.2786 120.221 69.3516 119.898C69.4245 119.576 69.4609 119.229 69.4609 118.859V118.695C69.4609 118.331 69.4245 117.99 69.3516 117.672C69.2786 117.349 69.1641 117.065 69.0078 116.82C68.8568 116.57 68.6589 116.375 68.4141 116.234C68.1745 116.089 67.8854 116.016 67.5469 116.016C67.2135 116.016 66.9271 116.089 66.6875 116.234C66.4479 116.375 66.2526 116.57 66.1016 116.82C65.9505 117.065 65.8385 117.349 65.7656 117.672C65.6927 117.99 65.6562 118.331 65.6562 118.695ZM75.0859 116.172V126.25H73.0156V114.547H74.9297L75.0859 116.172ZM80.5156 118.688V118.852C80.5156 119.466 80.4427 120.036 80.2969 120.562C80.1562 121.083 79.9479 121.539 79.6719 121.93C79.3958 122.315 79.0521 122.617 78.6406 122.836C78.2344 123.049 77.7656 123.156 77.2344 123.156C76.7135 123.156 76.2604 123.057 75.875 122.859C75.4896 122.656 75.1641 122.37 74.8984 122C74.6328 121.63 74.4193 121.201 74.2578 120.711C74.1016 120.216 73.9844 119.677 73.9062 119.094V118.57C73.9844 117.951 74.1016 117.388 74.2578 116.883C74.4193 116.372 74.6328 115.932 74.8984 115.562C75.1641 115.188 75.487 114.898 75.8672 114.695C76.2526 114.492 76.7031 114.391 77.2188 114.391C77.7552 114.391 78.2266 114.492 78.6328 114.695C79.0443 114.898 79.3906 115.19 79.6719 115.57C79.9531 115.951 80.1641 116.404 80.3047 116.93C80.4453 117.456 80.5156 118.042 80.5156 118.688ZM78.4453 118.852V118.688C78.4453 118.312 78.4115 117.966 78.3438 117.648C78.276 117.326 78.1719 117.044 78.0312 116.805C77.8906 116.56 77.7083 116.37 77.4844 116.234C77.2604 116.099 76.9896 116.031 76.6719 116.031C76.3542 116.031 76.0807 116.083 75.8516 116.188C75.6224 116.292 75.4349 116.44 75.2891 116.633C75.1432 116.826 75.0286 117.055 74.9453 117.32C74.8672 117.581 74.8151 117.87 74.7891 118.188V119.484C74.8359 119.87 74.9271 120.216 75.0625 120.523C75.1979 120.831 75.3958 121.076 75.6562 121.258C75.9219 121.44 76.2656 121.531 76.6875 121.531C77.0052 121.531 77.276 121.461 77.5 121.32C77.724 121.18 77.9062 120.987 78.0469 120.742C78.1875 120.492 78.2891 120.206 78.3516 119.883C78.4141 119.56 78.4453 119.216 78.4453 118.852ZM84.4062 122.062L86.6719 114.547H88.8828L85.4922 124.281C85.4141 124.49 85.3125 124.716 85.1875 124.961C85.0677 125.206 84.9062 125.438 84.7031 125.656C84.5 125.88 84.2448 126.062 83.9375 126.203C83.6354 126.344 83.2682 126.414 82.8359 126.414C82.6484 126.414 82.4818 126.401 82.3359 126.375C82.1901 126.349 82.0365 126.315 81.875 126.273V124.727C81.9271 124.732 81.987 124.734 82.0547 124.734C82.1276 124.74 82.1901 124.742 82.2422 124.742C82.5443 124.742 82.7943 124.706 82.9922 124.633C83.1901 124.565 83.349 124.453 83.4688 124.297C83.5938 124.146 83.6979 123.948 83.7812 123.703L84.4062 122.062ZM83.2891 114.547L85.2031 120.773L85.5391 122.953L84.1172 123.211L81.0625 114.547H83.2891ZM91.9453 116.273V123H89.8828V114.547H91.8359L91.9453 116.273ZM94.5156 114.492L94.4844 116.414C94.3698 116.393 94.2396 116.378 94.0938 116.367C93.9531 116.357 93.8203 116.352 93.6953 116.352C93.3776 116.352 93.099 116.396 92.8594 116.484C92.6198 116.568 92.4193 116.69 92.2578 116.852C92.1016 117.013 91.9818 117.211 91.8984 117.445C91.8151 117.674 91.7682 117.935 91.7578 118.227L91.3125 118.172C91.3125 117.635 91.3672 117.138 91.4766 116.68C91.5859 116.221 91.7448 115.82 91.9531 115.477C92.1615 115.133 92.4219 114.867 92.7344 114.68C93.0521 114.487 93.4167 114.391 93.8281 114.391C93.9427 114.391 94.0651 114.401 94.1953 114.422C94.3307 114.438 94.4375 114.461 94.5156 114.492ZM97.8359 114.547V123H95.7656V114.547H97.8359ZM95.625 112.336C95.625 112.029 95.7292 111.773 95.9375 111.57C96.151 111.367 96.4375 111.266 96.7969 111.266C97.1562 111.266 97.4401 111.367 97.6484 111.57C97.862 111.773 97.9688 112.029 97.9688 112.336C97.9688 112.638 97.862 112.891 97.6484 113.094C97.4401 113.297 97.1562 113.398 96.7969 113.398C96.4375 113.398 96.151 113.297 95.9375 113.094C95.7292 112.891 95.625 112.638 95.625 112.336ZM105.18 114.547H107.055V122.742C107.055 123.508 106.888 124.156 106.555 124.688C106.227 125.224 105.766 125.63 105.172 125.906C104.578 126.188 103.888 126.328 103.102 126.328C102.763 126.328 102.396 126.281 102 126.188C101.609 126.094 101.232 125.945 100.867 125.742C100.508 125.544 100.208 125.286 99.9688 124.969L100.898 123.75C101.18 124.078 101.497 124.326 101.852 124.492C102.206 124.664 102.589 124.75 103 124.75C103.417 124.75 103.771 124.672 104.062 124.516C104.359 124.365 104.586 124.141 104.742 123.844C104.904 123.552 104.984 123.193 104.984 122.766V116.477L105.18 114.547ZM99.4688 118.875V118.711C99.4688 118.065 99.5469 117.479 99.7031 116.953C99.8594 116.422 100.083 115.966 100.375 115.586C100.672 115.206 101.029 114.911 101.445 114.703C101.867 114.495 102.341 114.391 102.867 114.391C103.424 114.391 103.893 114.492 104.273 114.695C104.659 114.898 104.977 115.188 105.227 115.562C105.482 115.938 105.68 116.383 105.82 116.898C105.966 117.409 106.078 117.971 106.156 118.586V119.031C106.083 119.63 105.966 120.18 105.805 120.68C105.648 121.18 105.44 121.617 105.18 121.992C104.919 122.362 104.596 122.648 104.211 122.852C103.826 123.055 103.372 123.156 102.852 123.156C102.331 123.156 101.862 123.049 101.445 122.836C101.029 122.622 100.672 122.323 100.375 121.938C100.083 121.552 99.8594 121.099 99.7031 120.578C99.5469 120.057 99.4688 119.49 99.4688 118.875ZM101.531 118.711V118.875C101.531 119.24 101.568 119.581 101.641 119.898C101.714 120.216 101.826 120.497 101.977 120.742C102.128 120.982 102.318 121.169 102.547 121.305C102.776 121.44 103.049 121.508 103.367 121.508C103.794 121.508 104.143 121.419 104.414 121.242C104.69 121.06 104.898 120.812 105.039 120.5C105.185 120.182 105.279 119.826 105.32 119.43V118.203C105.294 117.891 105.237 117.602 105.148 117.336C105.065 117.07 104.948 116.841 104.797 116.648C104.646 116.456 104.453 116.305 104.219 116.195C103.984 116.086 103.706 116.031 103.383 116.031C103.07 116.031 102.797 116.102 102.562 116.242C102.328 116.378 102.135 116.568 101.984 116.812C101.833 117.057 101.719 117.341 101.641 117.664C101.568 117.987 101.531 118.336 101.531 118.711ZM110.938 111V123H108.867V111H110.938ZM110.609 118.469H110C110 117.88 110.078 117.339 110.234 116.844C110.391 116.349 110.612 115.919 110.898 115.555C111.185 115.185 111.526 114.898 111.922 114.695C112.323 114.492 112.766 114.391 113.25 114.391C113.667 114.391 114.044 114.451 114.383 114.57C114.727 114.685 115.021 114.87 115.266 115.125C115.51 115.38 115.698 115.714 115.828 116.125C115.964 116.531 116.031 117.026 116.031 117.609V123H113.953V117.594C113.953 117.203 113.896 116.896 113.781 116.672C113.667 116.443 113.503 116.279 113.289 116.18C113.081 116.081 112.823 116.031 112.516 116.031C112.182 116.031 111.896 116.096 111.656 116.227C111.417 116.352 111.219 116.526 111.062 116.75C110.911 116.974 110.797 117.232 110.719 117.523C110.646 117.815 110.609 118.13 110.609 118.469ZM121.852 114.547V116.031H117.008V114.547H121.852ZM118.305 112.469H120.375V120.562C120.375 120.812 120.409 121.005 120.477 121.141C120.544 121.276 120.646 121.367 120.781 121.414C120.917 121.461 121.078 121.484 121.266 121.484C121.401 121.484 121.526 121.477 121.641 121.461C121.755 121.445 121.852 121.43 121.93 121.414L121.938 122.961C121.766 123.018 121.57 123.065 121.352 123.102C121.138 123.138 120.896 123.156 120.625 123.156C120.161 123.156 119.755 123.078 119.406 122.922C119.057 122.76 118.786 122.503 118.594 122.148C118.401 121.789 118.305 121.315 118.305 120.727V112.469ZM134.805 121.375V123H127.102V121.609L130.797 117.617C131.182 117.18 131.487 116.799 131.711 116.477C131.935 116.154 132.094 115.862 132.188 115.602C132.286 115.336 132.336 115.083 132.336 114.844C132.336 114.495 132.273 114.19 132.148 113.93C132.023 113.664 131.841 113.458 131.602 113.312C131.367 113.167 131.078 113.094 130.734 113.094C130.354 113.094 130.029 113.182 129.758 113.359C129.492 113.531 129.289 113.771 129.148 114.078C129.013 114.385 128.945 114.737 128.945 115.133H126.875C126.875 114.461 127.031 113.849 127.344 113.297C127.656 112.74 128.104 112.294 128.688 111.961C129.271 111.628 129.964 111.461 130.766 111.461C131.547 111.461 132.208 111.591 132.75 111.852C133.292 112.107 133.703 112.471 133.984 112.945C134.266 113.419 134.406 113.984 134.406 114.641C134.406 115.005 134.346 115.365 134.227 115.719C134.107 116.073 133.938 116.424 133.719 116.773C133.505 117.117 133.25 117.466 132.953 117.82C132.656 118.174 132.326 118.536 131.961 118.906L129.742 121.375H134.805ZM143.773 116.336V118.25C143.773 119.125 143.685 119.872 143.508 120.492C143.331 121.112 143.076 121.62 142.742 122.016C142.409 122.406 142.01 122.695 141.547 122.883C141.083 123.065 140.568 123.156 140 123.156C139.547 123.156 139.125 123.099 138.734 122.984C138.344 122.865 137.992 122.682 137.68 122.438C137.372 122.188 137.107 121.87 136.883 121.484C136.664 121.099 136.495 120.638 136.375 120.102C136.26 119.565 136.203 118.948 136.203 118.25V116.336C136.203 115.461 136.292 114.716 136.469 114.102C136.651 113.487 136.909 112.984 137.242 112.594C137.576 112.203 137.974 111.919 138.438 111.742C138.901 111.56 139.417 111.469 139.984 111.469C140.443 111.469 140.865 111.526 141.25 111.641C141.641 111.755 141.99 111.935 142.297 112.18C142.609 112.419 142.875 112.732 143.094 113.117C143.312 113.497 143.479 113.956 143.594 114.492C143.714 115.023 143.773 115.638 143.773 116.336ZM141.711 118.531V116.047C141.711 115.609 141.685 115.229 141.633 114.906C141.586 114.578 141.516 114.299 141.422 114.07C141.328 113.841 141.211 113.656 141.07 113.516C140.93 113.37 140.768 113.263 140.586 113.195C140.404 113.128 140.203 113.094 139.984 113.094C139.714 113.094 139.471 113.148 139.258 113.258C139.044 113.362 138.865 113.529 138.719 113.758C138.573 113.987 138.461 114.292 138.383 114.672C138.31 115.047 138.273 115.505 138.273 116.047V118.531C138.273 118.969 138.297 119.352 138.344 119.68C138.396 120.008 138.469 120.289 138.562 120.523C138.661 120.758 138.779 120.951 138.914 121.102C139.055 121.247 139.216 121.357 139.398 121.43C139.581 121.497 139.781 121.531 140 121.531C140.276 121.531 140.518 121.477 140.727 121.367C140.94 121.258 141.12 121.086 141.266 120.852C141.411 120.612 141.521 120.302 141.594 119.922C141.672 119.536 141.711 119.073 141.711 118.531ZM150.695 111.594V123H148.625V114.008L145.883 114.914V113.242L150.461 111.594H150.695ZM162.07 119.891C162.07 120.599 161.904 121.198 161.57 121.688C161.242 122.172 160.792 122.539 160.219 122.789C159.651 123.034 159.005 123.156 158.281 123.156C157.562 123.156 156.914 123.034 156.336 122.789C155.763 122.539 155.307 122.172 154.969 121.688C154.635 121.198 154.469 120.599 154.469 119.891C154.469 119.417 154.562 118.987 154.75 118.602C154.943 118.216 155.208 117.885 155.547 117.609C155.885 117.328 156.286 117.115 156.75 116.969C157.214 116.818 157.719 116.742 158.266 116.742C158.995 116.742 159.646 116.875 160.219 117.141C160.797 117.401 161.25 117.768 161.578 118.242C161.906 118.711 162.07 119.26 162.07 119.891ZM159.992 119.766C159.992 119.401 159.919 119.086 159.773 118.82C159.633 118.549 159.432 118.341 159.172 118.195C158.911 118.049 158.609 117.977 158.266 117.977C157.917 117.977 157.612 118.049 157.352 118.195C157.096 118.341 156.896 118.549 156.75 118.82C156.609 119.086 156.539 119.401 156.539 119.766C156.539 120.135 156.609 120.453 156.75 120.719C156.896 120.979 157.099 121.18 157.359 121.32C157.62 121.461 157.927 121.531 158.281 121.531C158.635 121.531 158.94 121.461 159.195 121.32C159.451 121.18 159.646 120.979 159.781 120.719C159.922 120.453 159.992 120.135 159.992 119.766ZM161.82 114.625C161.82 115.198 161.669 115.708 161.367 116.156C161.065 116.599 160.646 116.945 160.109 117.195C159.578 117.445 158.969 117.57 158.281 117.57C157.594 117.57 156.979 117.445 156.438 117.195C155.901 116.945 155.479 116.599 155.172 116.156C154.87 115.708 154.719 115.198 154.719 114.625C154.719 113.948 154.872 113.375 155.18 112.906C155.487 112.432 155.906 112.073 156.438 111.828C156.974 111.583 157.583 111.461 158.266 111.461C158.958 111.461 159.573 111.583 160.109 111.828C160.646 112.073 161.065 112.432 161.367 112.906C161.669 113.375 161.82 113.948 161.82 114.625ZM159.758 114.711C159.758 114.388 159.698 114.107 159.578 113.867C159.458 113.622 159.286 113.432 159.062 113.297C158.844 113.161 158.578 113.094 158.266 113.094C157.964 113.094 157.703 113.159 157.484 113.289C157.266 113.419 157.096 113.607 156.977 113.852C156.857 114.091 156.797 114.378 156.797 114.711C156.797 115.039 156.857 115.326 156.977 115.57C157.096 115.815 157.266 116.008 157.484 116.148C157.708 116.284 157.974 116.352 158.281 116.352C158.589 116.352 158.852 116.284 159.07 116.148C159.289 116.008 159.458 115.815 159.578 115.57C159.698 115.326 159.758 115.039 159.758 114.711ZM171.867 117.312V118.945H167.594V117.312H171.867ZM182.297 113.352L179.055 123H176.781L181.031 111.625H182.484L182.297 113.352ZM185.008 123L181.75 113.352L181.555 111.625H183.016L187.289 123H185.008ZM184.859 118.773V120.469H178.758V118.773H184.859ZM190.492 111V123H188.422V111H190.492ZM194.648 111V123H192.578V111H194.648ZM202.664 116.273V123H200.602V114.547H202.555L202.664 116.273ZM205.234 114.492L205.203 116.414C205.089 116.393 204.958 116.378 204.812 116.367C204.672 116.357 204.539 116.352 204.414 116.352C204.096 116.352 203.818 116.396 203.578 116.484C203.339 116.568 203.138 116.69 202.977 116.852C202.82 117.013 202.701 117.211 202.617 117.445C202.534 117.674 202.487 117.935 202.477 118.227L202.031 118.172C202.031 117.635 202.086 117.138 202.195 116.68C202.305 116.221 202.464 115.82 202.672 115.477C202.88 115.133 203.141 114.867 203.453 114.68C203.771 114.487 204.135 114.391 204.547 114.391C204.661 114.391 204.784 114.401 204.914 114.422C205.049 114.438 205.156 114.461 205.234 114.492ZM208.555 114.547V123H206.484V114.547H208.555ZM206.344 112.336C206.344 112.029 206.448 111.773 206.656 111.57C206.87 111.367 207.156 111.266 207.516 111.266C207.875 111.266 208.159 111.367 208.367 111.57C208.581 111.773 208.688 112.029 208.688 112.336C208.688 112.638 208.581 112.891 208.367 113.094C208.159 113.297 207.875 113.398 207.516 113.398C207.156 113.398 206.87 113.297 206.656 113.094C206.448 112.891 206.344 112.638 206.344 112.336ZM215.898 114.547H217.773V122.742C217.773 123.508 217.607 124.156 217.273 124.688C216.945 125.224 216.484 125.63 215.891 125.906C215.297 126.188 214.607 126.328 213.82 126.328C213.482 126.328 213.115 126.281 212.719 126.188C212.328 126.094 211.951 125.945 211.586 125.742C211.227 125.544 210.927 125.286 210.688 124.969L211.617 123.75C211.898 124.078 212.216 124.326 212.57 124.492C212.924 124.664 213.307 124.75 213.719 124.75C214.135 124.75 214.49 124.672 214.781 124.516C215.078 124.365 215.305 124.141 215.461 123.844C215.622 123.552 215.703 123.193 215.703 122.766V116.477L215.898 114.547ZM210.188 118.875V118.711C210.188 118.065 210.266 117.479 210.422 116.953C210.578 116.422 210.802 115.966 211.094 115.586C211.391 115.206 211.747 114.911 212.164 114.703C212.586 114.495 213.06 114.391 213.586 114.391C214.143 114.391 214.612 114.492 214.992 114.695C215.378 114.898 215.695 115.188 215.945 115.562C216.201 115.938 216.398 116.383 216.539 116.898C216.685 117.409 216.797 117.971 216.875 118.586V119.031C216.802 119.63 216.685 120.18 216.523 120.68C216.367 121.18 216.159 121.617 215.898 121.992C215.638 122.362 215.315 122.648 214.93 122.852C214.544 123.055 214.091 123.156 213.57 123.156C213.049 123.156 212.581 123.049 212.164 122.836C211.747 122.622 211.391 122.323 211.094 121.938C210.802 121.552 210.578 121.099 210.422 120.578C210.266 120.057 210.188 119.49 210.188 118.875ZM212.25 118.711V118.875C212.25 119.24 212.286 119.581 212.359 119.898C212.432 120.216 212.544 120.497 212.695 120.742C212.846 120.982 213.036 121.169 213.266 121.305C213.495 121.44 213.768 121.508 214.086 121.508C214.513 121.508 214.862 121.419 215.133 121.242C215.409 121.06 215.617 120.812 215.758 120.5C215.904 120.182 215.997 119.826 216.039 119.43V118.203C216.013 117.891 215.956 117.602 215.867 117.336C215.784 117.07 215.667 116.841 215.516 116.648C215.365 116.456 215.172 116.305 214.938 116.195C214.703 116.086 214.424 116.031 214.102 116.031C213.789 116.031 213.516 116.102 213.281 116.242C213.047 116.378 212.854 116.568 212.703 116.812C212.552 117.057 212.438 117.341 212.359 117.664C212.286 117.987 212.25 118.336 212.25 118.711ZM221.656 111V123H219.586V111H221.656ZM221.328 118.469H220.719C220.719 117.88 220.797 117.339 220.953 116.844C221.109 116.349 221.331 115.919 221.617 115.555C221.904 115.185 222.245 114.898 222.641 114.695C223.042 114.492 223.484 114.391 223.969 114.391C224.385 114.391 224.763 114.451 225.102 114.57C225.445 114.685 225.74 114.87 225.984 115.125C226.229 115.38 226.417 115.714 226.547 116.125C226.682 116.531 226.75 117.026 226.75 117.609V123H224.672V117.594C224.672 117.203 224.615 116.896 224.5 116.672C224.385 116.443 224.221 116.279 224.008 116.18C223.799 116.081 223.542 116.031 223.234 116.031C222.901 116.031 222.615 116.096 222.375 116.227C222.135 116.352 221.938 116.526 221.781 116.75C221.63 116.974 221.516 117.232 221.438 117.523C221.365 117.815 221.328 118.13 221.328 118.469ZM232.57 114.547V116.031H227.727V114.547H232.57ZM229.023 112.469H231.094V120.562C231.094 120.812 231.128 121.005 231.195 121.141C231.263 121.276 231.365 121.367 231.5 121.414C231.635 121.461 231.797 121.484 231.984 121.484C232.12 121.484 232.245 121.477 232.359 121.461C232.474 121.445 232.57 121.43 232.648 121.414L232.656 122.961C232.484 123.018 232.289 123.065 232.07 123.102C231.857 123.138 231.615 123.156 231.344 123.156C230.88 123.156 230.474 123.078 230.125 122.922C229.776 122.76 229.505 122.503 229.312 122.148C229.12 121.789 229.023 121.315 229.023 120.727V112.469ZM238.594 120.688C238.594 120.51 238.547 120.352 238.453 120.211C238.359 120.07 238.182 119.943 237.922 119.828C237.667 119.708 237.292 119.596 236.797 119.492C236.359 119.398 235.956 119.281 235.586 119.141C235.216 119 234.898 118.831 234.633 118.633C234.367 118.43 234.159 118.193 234.008 117.922C233.862 117.646 233.789 117.328 233.789 116.969C233.789 116.62 233.865 116.292 234.016 115.984C234.167 115.672 234.385 115.398 234.672 115.164C234.958 114.924 235.307 114.737 235.719 114.602C236.13 114.461 236.594 114.391 237.109 114.391C237.828 114.391 238.445 114.508 238.961 114.742C239.482 114.977 239.88 115.299 240.156 115.711C240.432 116.117 240.57 116.576 240.57 117.086H238.508C238.508 116.862 238.456 116.659 238.352 116.477C238.253 116.294 238.099 116.148 237.891 116.039C237.682 115.924 237.419 115.867 237.102 115.867C236.815 115.867 236.573 115.914 236.375 116.008C236.182 116.102 236.036 116.224 235.938 116.375C235.839 116.526 235.789 116.693 235.789 116.875C235.789 117.01 235.815 117.133 235.867 117.242C235.924 117.346 236.016 117.443 236.141 117.531C236.266 117.62 236.435 117.701 236.648 117.773C236.867 117.846 237.135 117.917 237.453 117.984C238.083 118.109 238.633 118.276 239.102 118.484C239.576 118.688 239.945 118.958 240.211 119.297C240.477 119.635 240.609 120.068 240.609 120.594C240.609 120.969 240.529 121.312 240.367 121.625C240.206 121.932 239.971 122.201 239.664 122.43C239.357 122.659 238.99 122.839 238.562 122.969C238.135 123.094 237.654 123.156 237.117 123.156C236.341 123.156 235.685 123.018 235.148 122.742C234.612 122.461 234.206 122.107 233.93 121.68C233.654 121.247 233.516 120.799 233.516 120.336H235.492C235.508 120.664 235.596 120.927 235.758 121.125C235.919 121.323 236.122 121.466 236.367 121.555C236.617 121.638 236.88 121.68 237.156 121.68C237.469 121.68 237.732 121.638 237.945 121.555C238.159 121.466 238.32 121.349 238.43 121.203C238.539 121.052 238.594 120.88 238.594 120.688ZM248.227 116.273V123H246.164V114.547H248.117L248.227 116.273ZM250.797 114.492L250.766 116.414C250.651 116.393 250.521 116.378 250.375 116.367C250.234 116.357 250.102 116.352 249.977 116.352C249.659 116.352 249.38 116.396 249.141 116.484C248.901 116.568 248.701 116.69 248.539 116.852C248.383 117.013 248.263 117.211 248.18 117.445C248.096 117.674 248.049 117.935 248.039 118.227L247.594 118.172C247.594 117.635 247.648 117.138 247.758 116.68C247.867 116.221 248.026 115.82 248.234 115.477C248.443 115.133 248.703 114.867 249.016 114.68C249.333 114.487 249.698 114.391 250.109 114.391C250.224 114.391 250.346 114.401 250.477 114.422C250.612 114.438 250.719 114.461 250.797 114.492ZM255.57 123.156C254.93 123.156 254.354 123.052 253.844 122.844C253.333 122.635 252.898 122.346 252.539 121.977C252.185 121.602 251.911 121.167 251.719 120.672C251.531 120.172 251.438 119.635 251.438 119.062V118.75C251.438 118.099 251.531 117.508 251.719 116.977C251.906 116.44 252.172 115.979 252.516 115.594C252.859 115.208 253.271 114.911 253.75 114.703C254.229 114.495 254.758 114.391 255.336 114.391C255.935 114.391 256.464 114.492 256.922 114.695C257.38 114.893 257.763 115.174 258.07 115.539C258.378 115.904 258.609 116.341 258.766 116.852C258.922 117.357 259 117.917 259 118.531V119.398H252.375V117.977H256.969V117.82C256.958 117.492 256.896 117.193 256.781 116.922C256.667 116.646 256.49 116.427 256.25 116.266C256.01 116.099 255.701 116.016 255.32 116.016C255.013 116.016 254.745 116.083 254.516 116.219C254.292 116.349 254.104 116.536 253.953 116.781C253.807 117.021 253.698 117.307 253.625 117.641C253.552 117.974 253.516 118.344 253.516 118.75V119.062C253.516 119.417 253.562 119.745 253.656 120.047C253.755 120.349 253.898 120.612 254.086 120.836C254.279 121.055 254.508 121.227 254.773 121.352C255.044 121.471 255.352 121.531 255.695 121.531C256.128 121.531 256.518 121.448 256.867 121.281C257.221 121.109 257.529 120.857 257.789 120.523L258.828 121.602C258.651 121.862 258.411 122.112 258.109 122.352C257.812 122.591 257.453 122.786 257.031 122.938C256.609 123.083 256.122 123.156 255.57 123.156ZM265.031 120.688C265.031 120.51 264.984 120.352 264.891 120.211C264.797 120.07 264.62 119.943 264.359 119.828C264.104 119.708 263.729 119.596 263.234 119.492C262.797 119.398 262.393 119.281 262.023 119.141C261.654 119 261.336 118.831 261.07 118.633C260.805 118.43 260.596 118.193 260.445 117.922C260.299 117.646 260.227 117.328 260.227 116.969C260.227 116.62 260.302 116.292 260.453 115.984C260.604 115.672 260.823 115.398 261.109 115.164C261.396 114.924 261.745 114.737 262.156 114.602C262.568 114.461 263.031 114.391 263.547 114.391C264.266 114.391 264.883 114.508 265.398 114.742C265.919 114.977 266.318 115.299 266.594 115.711C266.87 116.117 267.008 116.576 267.008 117.086H264.945C264.945 116.862 264.893 116.659 264.789 116.477C264.69 116.294 264.536 116.148 264.328 116.039C264.12 115.924 263.857 115.867 263.539 115.867C263.253 115.867 263.01 115.914 262.812 116.008C262.62 116.102 262.474 116.224 262.375 116.375C262.276 116.526 262.227 116.693 262.227 116.875C262.227 117.01 262.253 117.133 262.305 117.242C262.362 117.346 262.453 117.443 262.578 117.531C262.703 117.62 262.872 117.701 263.086 117.773C263.305 117.846 263.573 117.917 263.891 117.984C264.521 118.109 265.07 118.276 265.539 118.484C266.013 118.688 266.383 118.958 266.648 119.297C266.914 119.635 267.047 120.068 267.047 120.594C267.047 120.969 266.966 121.312 266.805 121.625C266.643 121.932 266.409 122.201 266.102 122.43C265.794 122.659 265.427 122.839 265 122.969C264.573 123.094 264.091 123.156 263.555 123.156C262.779 123.156 262.122 123.018 261.586 122.742C261.049 122.461 260.643 122.107 260.367 121.68C260.091 121.247 259.953 120.799 259.953 120.336H261.93C261.945 120.664 262.034 120.927 262.195 121.125C262.357 121.323 262.56 121.466 262.805 121.555C263.055 121.638 263.318 121.68 263.594 121.68C263.906 121.68 264.169 121.638 264.383 121.555C264.596 121.466 264.758 121.349 264.867 121.203C264.977 121.052 265.031 120.88 265.031 120.688ZM272.414 123.156C271.773 123.156 271.198 123.052 270.688 122.844C270.177 122.635 269.742 122.346 269.383 121.977C269.029 121.602 268.755 121.167 268.562 120.672C268.375 120.172 268.281 119.635 268.281 119.062V118.75C268.281 118.099 268.375 117.508 268.562 116.977C268.75 116.44 269.016 115.979 269.359 115.594C269.703 115.208 270.115 114.911 270.594 114.703C271.073 114.495 271.602 114.391 272.18 114.391C272.779 114.391 273.307 114.492 273.766 114.695C274.224 114.893 274.607 115.174 274.914 115.539C275.221 115.904 275.453 116.341 275.609 116.852C275.766 117.357 275.844 117.917 275.844 118.531V119.398H269.219V117.977H273.812V117.82C273.802 117.492 273.74 117.193 273.625 116.922C273.51 116.646 273.333 116.427 273.094 116.266C272.854 116.099 272.544 116.016 272.164 116.016C271.857 116.016 271.589 116.083 271.359 116.219C271.135 116.349 270.948 116.536 270.797 116.781C270.651 117.021 270.542 117.307 270.469 117.641C270.396 117.974 270.359 118.344 270.359 118.75V119.062C270.359 119.417 270.406 119.745 270.5 120.047C270.599 120.349 270.742 120.612 270.93 120.836C271.122 121.055 271.352 121.227 271.617 121.352C271.888 121.471 272.195 121.531 272.539 121.531C272.971 121.531 273.362 121.448 273.711 121.281C274.065 121.109 274.372 120.857 274.633 120.523L275.672 121.602C275.495 121.862 275.255 122.112 274.953 122.352C274.656 122.591 274.297 122.786 273.875 122.938C273.453 123.083 272.966 123.156 272.414 123.156ZM279.289 116.273V123H277.227V114.547H279.18L279.289 116.273ZM281.859 114.492L281.828 116.414C281.714 116.393 281.583 116.378 281.438 116.367C281.297 116.357 281.164 116.352 281.039 116.352C280.721 116.352 280.443 116.396 280.203 116.484C279.964 116.568 279.763 116.69 279.602 116.852C279.445 117.013 279.326 117.211 279.242 117.445C279.159 117.674 279.112 117.935 279.102 118.227L278.656 118.172C278.656 117.635 278.711 117.138 278.82 116.68C278.93 116.221 279.089 115.82 279.297 115.477C279.505 115.133 279.766 114.867 280.078 114.68C280.396 114.487 280.76 114.391 281.172 114.391C281.286 114.391 281.409 114.401 281.539 114.422C281.674 114.438 281.781 114.461 281.859 114.492ZM285.938 121.438L287.906 114.547H290.062L287.164 123H285.852L285.938 121.438ZM284.5 114.547L286.492 121.453L286.562 123H285.242L282.336 114.547H284.5ZM294.836 123.156C294.195 123.156 293.62 123.052 293.109 122.844C292.599 122.635 292.164 122.346 291.805 121.977C291.451 121.602 291.177 121.167 290.984 120.672C290.797 120.172 290.703 119.635 290.703 119.062V118.75C290.703 118.099 290.797 117.508 290.984 116.977C291.172 116.44 291.438 115.979 291.781 115.594C292.125 115.208 292.536 114.911 293.016 114.703C293.495 114.495 294.023 114.391 294.602 114.391C295.201 114.391 295.729 114.492 296.188 114.695C296.646 114.893 297.029 115.174 297.336 115.539C297.643 115.904 297.875 116.341 298.031 116.852C298.188 117.357 298.266 117.917 298.266 118.531V119.398H291.641V117.977H296.234V117.82C296.224 117.492 296.161 117.193 296.047 116.922C295.932 116.646 295.755 116.427 295.516 116.266C295.276 116.099 294.966 116.016 294.586 116.016C294.279 116.016 294.01 116.083 293.781 116.219C293.557 116.349 293.37 116.536 293.219 116.781C293.073 117.021 292.964 117.307 292.891 117.641C292.818 117.974 292.781 118.344 292.781 118.75V119.062C292.781 119.417 292.828 119.745 292.922 120.047C293.021 120.349 293.164 120.612 293.352 120.836C293.544 121.055 293.773 121.227 294.039 121.352C294.31 121.471 294.617 121.531 294.961 121.531C295.393 121.531 295.784 121.448 296.133 121.281C296.487 121.109 296.794 120.857 297.055 120.523L298.094 121.602C297.917 121.862 297.677 122.112 297.375 122.352C297.078 122.591 296.719 122.786 296.297 122.938C295.875 123.083 295.388 123.156 294.836 123.156ZM304.719 121.203V111H306.797V123H304.922L304.719 121.203ZM299.289 118.875V118.711C299.289 118.065 299.362 117.479 299.508 116.953C299.659 116.422 299.878 115.966 300.164 115.586C300.451 115.206 300.797 114.911 301.203 114.703C301.615 114.495 302.081 114.391 302.602 114.391C303.107 114.391 303.547 114.492 303.922 114.695C304.302 114.898 304.625 115.188 304.891 115.562C305.161 115.938 305.378 116.383 305.539 116.898C305.701 117.409 305.818 117.971 305.891 118.586V119.031C305.818 119.63 305.701 120.18 305.539 120.68C305.378 121.18 305.161 121.617 304.891 121.992C304.625 122.362 304.302 122.648 303.922 122.852C303.542 123.055 303.096 123.156 302.586 123.156C302.07 123.156 301.607 123.049 301.195 122.836C300.789 122.622 300.443 122.323 300.156 121.938C299.875 121.552 299.659 121.099 299.508 120.578C299.362 120.057 299.289 119.49 299.289 118.875ZM301.359 118.711V118.875C301.359 119.24 301.391 119.581 301.453 119.898C301.516 120.216 301.617 120.497 301.758 120.742C301.898 120.982 302.078 121.169 302.297 121.305C302.521 121.44 302.792 121.508 303.109 121.508C303.516 121.508 303.849 121.419 304.109 121.242C304.375 121.06 304.581 120.812 304.727 120.5C304.872 120.182 304.966 119.826 305.008 119.43V118.203C304.987 117.891 304.932 117.602 304.844 117.336C304.76 117.07 304.641 116.841 304.484 116.648C304.333 116.456 304.146 116.305 303.922 116.195C303.698 116.086 303.432 116.031 303.125 116.031C302.807 116.031 302.536 116.102 302.312 116.242C302.089 116.378 301.906 116.568 301.766 116.812C301.625 117.057 301.521 117.341 301.453 117.664C301.391 117.987 301.359 118.336 301.359 118.711ZM308.75 121.992C308.75 121.68 308.857 121.417 309.07 121.203C309.284 120.99 309.573 120.883 309.938 120.883C310.302 120.883 310.591 120.99 310.805 121.203C311.018 121.417 311.125 121.68 311.125 121.992C311.125 122.299 311.018 122.56 310.805 122.773C310.591 122.982 310.302 123.086 309.938 123.086C309.573 123.086 309.284 122.982 309.07 122.773C308.857 122.56 308.75 122.299 308.75 121.992Z" fill="white"/>
</svg>
