<svg width="229" height="100" viewBox="0 0 229 100" fill="none" xmlns="http://www.w3.org/2000/svg">
<circle cx="68" cy="50" r="45" fill="#8C6630" stroke="#9A822F" stroke-width="10"/>
<path d="M25.9453 60.5156V66H7.78125V60.5156H25.9453ZM10.0781 31.875V66H3.04688V31.875H10.0781ZM23.5781 45.7734V51.1172H7.78125V45.7734H23.5781ZM25.9219 31.875V37.3828H7.78125V31.875H25.9219ZM42.9375 48.7031V54H29.6953V48.7031H42.9375ZM57.2109 60.5859L64.0078 31.875H67.8047L68.6719 36.6562L61.4297 66H57.3516L57.2109 60.5859ZM53.7188 31.875L59.3438 60.5859L58.875 66H54.3281L46.7578 31.875H53.7188ZM74.6484 60.4688L80.2031 31.875H87.1641L79.6172 66H75.0703L74.6484 60.4688ZM69.9375 31.875L76.7812 60.7031L76.5938 66H72.5156L65.2266 36.6328L66.1641 31.875H69.9375ZM103.828 37.7109L94.5469 66H87.0703L99.75 31.875H104.508L103.828 37.7109ZM111.539 66L102.234 37.7109L101.484 31.875H106.289L119.039 66H111.539ZM111.117 53.2969V58.8047H93.0938V53.2969H111.117ZM144.141 60.5156V66H126.961V60.5156H144.141ZM129.234 31.875V66H122.203V31.875H129.234ZM170.109 60.5156V66H152.93V60.5156H170.109ZM155.203 31.875V66H148.172V31.875H155.203ZM197.039 60.5156V66H178.875V60.5156H197.039ZM181.172 31.875V66H174.141V31.875H181.172ZM194.672 45.7734V51.1172H178.875V45.7734H194.672ZM197.016 31.875V37.3828H178.875V31.875H197.016ZM216.867 31.875V66H209.859V31.875H216.867ZM227.367 31.875V37.3828H199.523V31.875H227.367Z" fill="white"/>
</svg>
